<?xml version="1.0" encoding="UTF-8"?><svg id="a" xmlns="http://www.w3.org/2000/svg" viewBox="0 0 316.98 301.33"><defs><style>.b{fill:none;stroke:#231f20;stroke-miterlimit:10;stroke-width:4px;}</style></defs><path class="b" d="M314.98,162.5C314.98,73.86,243.12,2,154.48,2S2,70.27,2,154.48s64.85,144.85,144.85,144.85,137.61-61.61,137.61-137.61S225.93,30.99,153.73,30.99,29.54,86.59,29.54,155.18s52.82,117.98,117.98,117.98,112.08-50.18,112.08-112.08-47.67-106.48-106.48-106.48S51.97,99.89,51.97,155.76s43.02,96.1,96.1,96.1,91.29-40.87,91.29-91.29-38.83-86.73-86.73-86.73-82.39,36.89-82.39,82.39,35.04,78.27,78.27,78.27,74.36-33.29,74.36-74.36-31.63-70.64-70.64-70.64-67.11,30.05-67.11,67.11,28.54,63.75,63.75,63.75,60.57-27.12,60.57-60.57-25.76-57.54-57.54-57.54-54.66,24.47-54.66,54.66,23.25,51.93,51.93,51.93,49.33-22.09,49.33-49.33-20.98-46.86-46.86-46.86-44.52,19.93-44.52,44.52,18.94,42.3,42.3,42.3,40.18-17.99,40.18-40.18-17.09-38.17-38.17-38.17-36.26,16.24-36.26,36.26,15.42,34.45,34.45,34.45,32.73-14.65,32.73-32.73-13.92-31.09-31.09-31.09-29.54,13.22-29.54,29.54,12.56,28.06,28.06,28.06,26.66-11.93,26.66-26.66-11.34-25.32-25.32-25.32-24.06,10.77-24.06,24.06,10.23,22.85,22.85,22.85,21.71-9.72,21.71-21.71"/></svg>